<?xml version="1.0" standalone="no"?>
<!DOCTYPE svg PUBLIC "-//W3C//DTD SVG 20010904//EN"
 "http://www.w3.org/TR/2001/REC-SVG-20010904/DTD/svg10.dtd">
<svg version="1.0" xmlns="http://www.w3.org/2000/svg"
 width="1024.000000pt" height="1024.000000pt" viewBox="0 0 1024.000000 1024.000000"
 preserveAspectRatio="xMidYMid meet">

<g transform="translate(0.000000,1024.000000) scale(0.100000,-0.100000)"
fill="#000000" stroke="none">
<path d="M5517 9294 c-363 -56 -628 -216 -742 -447 -25 -51 -53 -122 -62 -159
l-16 -68 -56 0 c-202 0 -606 -82 -871 -177 -372 -133 -820 -413 -1073 -670
l-57 -59 85 -102 c47 -56 89 -102 94 -102 4 0 18 12 32 26 39 42 246 196 391
291 137 91 340 200 503 271 265 116 627 206 925 230 88 8 108 6 123 -6 9 -8
17 -18 17 -22 0 -3 -24 -14 -52 -25 -448 -158 -788 -512 -941 -980 -76 -231
-101 -405 -102 -705 0 -258 6 -319 52 -515 102 -434 355 -799 713 -1030 72
-46 211 -118 217 -112 1 2 -16 38 -38 80 -160 306 -244 632 -255 990 -3 88 -1
157 3 155 4 -1 51 -29 103 -60 165 -99 349 -159 529 -173 105 -8 102 -14 38
72 -21 29 -36 57 -33 62 10 16 112 50 169 57 84 10 153 -11 339 -102 201 -100
376 -175 539 -232 124 -43 340 -107 401 -117 35 -7 38 -10 53 -61 59 -209 111
-452 103 -488 -5 -24 -102 43 -223 154 -139 128 -214 183 -330 240 -142 70
-249 94 -390 87 -130 -6 -206 -28 -305 -86 -87 -52 -168 -133 -236 -238 -56
-84 -66 -107 -36 -80 20 18 213 137 223 137 3 0 -26 -33 -65 -72 -155 -159
-227 -383 -205 -642 10 -124 31 -200 85 -311 56 -116 120 -194 207 -255 161
-114 314 -128 481 -44 69 35 136 91 136 115 0 20 -15 26 -25 9 -11 -19 -30
-10 -43 20 -7 16 -22 32 -33 35 -19 6 -18 9 10 41 27 30 51 88 51 122 0 21 14
13 32 -18 22 -39 38 -38 38 0 0 66 -51 124 -149 168 l-63 29 53 30 c75 43 109
82 134 158 l22 64 27 -69 c28 -71 80 -131 132 -151 44 -16 47 -5 41 125 -7
134 -36 261 -86 369 -31 70 -98 175 -139 220 -35 37 -22 34 40 -10 187 -132
304 -290 352 -478 38 -148 43 -339 11 -430 -12 -34 124 113 171 185 24 38 62
105 84 151 22 45 41 76 44 68 12 -37 15 -272 6 -429 -8 -143 -36 -419 -44
-427 -1 -1 -51 -9 -111 -18 -220 -32 -467 -102 -663 -188 -80 -35 -96 -47 -94
-63 2 -10 7 -22 10 -25 4 -4 70 2 147 12 240 31 604 50 648 33 16 -6 14 -16
-28 -158 l-17 -58 -57 6 c-185 20 -324 26 -473 20 l-168 -7 7 -26 c8 -32 15
-37 66 -45 55 -9 296 -76 435 -121 73 -23 112 -41 112 -50 0 -26 -94 -199
-142 -261 -95 -124 -209 -207 -432 -315 -496 -241 -1087 -344 -1584 -274 -567
80 -1153 411 -1422 805 -56 83 -117 210 -142 297 -32 112 -30 276 4 389 26 87
92 212 145 273 l32 38 -14 94 c-22 145 -45 381 -44 451 l0 63 38 -105 c41
-113 82 -203 133 -291 l33 -56 -4 151 c-4 215 34 401 115 556 36 70 112 163
147 182 19 10 19 7 -6 -25 -47 -62 -118 -237 -96 -237 13 0 69 91 69 113 0 9
5 17 10 17 6 0 10 -12 10 -27 0 -38 37 -108 67 -128 l26 -17 -39 -22 c-21 -12
-48 -38 -59 -58 l-21 -38 -13 35 c-13 37 -60 81 -72 68 -13 -15 -29 -140 -29
-234 0 -259 89 -513 207 -590 75 -50 186 10 262 143 34 59 42 98 13 61 l-17
-21 -22 34 c-17 26 -19 34 -8 34 8 0 18 12 21 26 l6 25 24 -22 c13 -12 26 -21
28 -18 6 6 36 111 36 126 0 23 -15 14 -34 -22 -11 -20 -23 -34 -27 -33 -4 2
-18 19 -31 38 -13 19 -36 41 -52 49 l-28 13 29 17 c37 23 50 40 67 87 l14 39
11 -29 c6 -16 21 -42 33 -59 l22 -31 7 24 c12 45 9 233 -6 330 -18 125 -48
218 -97 310 -132 249 -354 296 -536 113 -32 -32 -92 -107 -135 -167 -45 -64
-77 -102 -77 -90 0 40 30 204 58 315 38 148 92 299 151 419 40 82 53 98 89
118 59 33 137 39 204 16 45 -15 72 -37 171 -137 64 -65 117 -115 117 -109 0 5
-24 70 -54 144 -91 226 -134 381 -162 578 -17 124 -19 395 -4 501 25 167 82
349 161 518 21 46 37 86 35 89 -3 2 -35 -24 -72 -59 -295 -283 -710 -1015
-848 -1497 -71 -246 -94 -397 -103 -666 l-6 -198 -33 88 c-18 48 -46 137 -61
198 -26 103 -28 125 -27 306 0 186 5 227 39 370 10 39 -38 -39 -89 -145 -54
-112 -108 -272 -138 -407 -20 -93 -23 -129 -23 -383 0 -281 1 -286 41 -485 17
-82 -94 201 -129 330 -62 226 -78 497 -43 722 82 525 435 1110 1050 1736 93
94 164 172 158 172 -25 0 -211 -95 -300 -153 -140 -92 -265 -199 -454 -390
-193 -195 -320 -348 -454 -550 -280 -418 -426 -795 -539 -1388 -92 -481 -159
-734 -250 -951 l-33 -77 62 31 c126 63 328 206 431 305 28 26 83 83 122 126
l71 78 26 -47 26 -47 -30 -91 c-126 -372 -190 -849 -161 -1201 43 -527 216
-991 518 -1388 103 -135 362 -394 491 -490 129 -97 313 -206 450 -267 97 -43
331 -124 338 -117 2 2 -31 30 -74 62 -217 169 -420 421 -547 681 -48 99 -119
293 -130 360 l-7 39 38 -55 c127 -185 366 -433 506 -524 l27 -18 -12 39 c-6
22 -11 108 -11 208 0 177 11 262 55 427 l22 82 18 -52 c63 -184 251 -439 481
-653 144 -133 611 -531 719 -612 l37 -28 78 47 c540 325 1005 615 1052 657 12
11 22 17 22 13 0 -15 -98 -203 -154 -295 -104 -173 -250 -343 -384 -449 -62
-48 -56 -50 71 -22 244 54 562 191 777 335 368 246 685 593 890 972 30 57 58
103 61 103 11 0 22 -214 21 -410 0 -163 -13 -356 -28 -430 -7 -36 139 119 227
242 241 333 393 708 480 1178 12 69 26 129 30 133 4 5 21 -17 38 -50 74 -138
317 -434 456 -556 129 -112 119 -105 111 -82 -74 204 -154 565 -195 886 -23
181 -55 519 -49 524 2 2 38 -7 80 -20 155 -49 264 -66 458 -72 102 -3 194 -4
205 -2 15 3 5 14 -45 50 -82 59 -238 220 -319 329 -110 148 -196 304 -254 460
-57 155 -57 150 9 93 85 -73 183 -138 298 -199 104 -55 284 -129 293 -120 3 2
-15 26 -39 53 -107 117 -235 305 -336 493 -126 236 -280 656 -367 998 l-25
102 54 123 c301 682 426 1570 331 2347 -31 252 -134 792 -154 813 -11 11 -289
-52 -506 -113 -499 -142 -936 -324 -1304 -545 -298 -178 -543 -374 -787 -629
l-145 -151 41 80 c96 185 146 259 252 370 82 87 201 190 247 215 31 16 25 19
-111 65 -207 69 -434 116 -635 131 l-92 7 5 31 c41 242 238 485 507 627 l70
37 -65 11 c-87 15 -352 12 -461 -5z m-191 -266 c-151 -151 -207 -255 -229
-431 -15 -117 1 -224 46 -318 18 -38 31 -69 29 -69 -2 0 -30 15 -61 34 -195
119 -245 300 -141 511 69 141 163 227 355 324 55 28 101 51 102 51 1 0 -45
-46 -101 -102z m2879 -788 c20 -152 20 -520 0 -673 -35 -265 -99 -482 -207
-705 -36 -73 -61 -132 -57 -132 5 0 12 6 16 13 11 20 173 148 173 138 0 -14
-100 -251 -155 -368 -64 -135 -144 -273 -239 -411 l-70 -104 -23 93 c-60 246
-158 471 -298 687 -26 40 -45 75 -42 78 9 9 144 -53 215 -99 40 -26 96 -68
123 -94 27 -25 49 -43 49 -39 0 25 -99 193 -146 249 -118 139 -251 214 -454
257 -30 6 -61 13 -68 16 -8 2 15 28 55 61 217 182 444 403 625 610 l36 41 7
-66 c12 -132 -27 -358 -81 -464 -14 -28 -21 -47 -16 -44 6 3 50 59 99 123 175
232 305 510 338 722 l7 45 -28 -18 c-16 -11 -47 -33 -69 -51 -22 -17 -46 -35
-53 -39 -6 -4 30 57 81 136 51 79 106 166 122 193 l29 50 8 -45 c4 -25 15 -97
23 -160z m-3297 -1137 c107 -101 260 -201 562 -365 297 -162 544 -280 750
-359 l75 -29 -60 5 c-744 68 -1250 358 -1425 817 -28 73 -25 78 12 27 17 -24
56 -67 86 -96z m22 -690 c47 -39 120 -95 162 -126 l78 -55 -52 -19 c-28 -10
-71 -35 -95 -57 -24 -21 -45 -37 -46 -35 -59 84 -217 403 -217 437 0 3 19 -12
43 -34 23 -23 80 -73 127 -111z m-1590 -204 c0 -6 16 -44 35 -86 27 -59 31
-73 17 -67 -9 4 -47 9 -84 12 -38 2 -68 7 -68 10 0 3 19 38 42 78 38 64 58 83
58 53z m2127 -1175 c26 -49 82 -100 136 -124 43 -19 42 -20 -23 -41 -61 -19
-125 -82 -141 -139 -15 -53 -29 -73 -29 -42 0 38 -40 110 -76 137 -36 27 -129
65 -161 65 -10 0 11 16 47 35 93 50 144 105 177 188 l27 69 11 -53 c6 -30 21
-72 32 -95z m1696 -76 c89 -180 127 -283 161 -446 41 -196 56 -347 56 -582 0
-218 -7 -311 -36 -475 -116 -661 -462 -1299 -960 -1775 -89 -85 -303 -260
-317 -260 -3 0 18 35 47 78 195 283 501 906 674 1372 247 668 344 1181 328
1751 -5 198 -25 427 -42 483 -16 50 20 -8 89 -146z m-3810 -447 l25 -23 -33
-30 c-19 -16 -37 -38 -40 -49 -8 -25 -25 -25 -25 0 0 11 -18 35 -40 54 -43 36
-49 47 -26 47 17 0 62 51 71 81 6 19 9 17 25 -17 9 -22 29 -50 43 -63z m-968
-421 c-51 -353 -57 -899 -14 -1275 30 -264 94 -565 168 -790 21 -66 38 -121
37 -122 -1 -2 -34 46 -73 105 -398 602 -493 1305 -278 2058 19 67 39 134 45
150 l11 28 54 -60 c49 -53 54 -63 50 -94z m3347 -2010 l-3 -249 -27 -21 c-31
-25 -277 -185 -542 -355 -102 -64 -220 -140 -263 -168 -68 -44 -80 -49 -100
-38 -29 16 -350 293 -354 306 -1 6 32 30 73 55 107 63 199 143 273 238 54 69
70 83 100 88 180 31 371 98 541 189 76 41 274 177 286 196 16 27 19 -13 16
-241z"/>
<path d="M1700 8892 c0 -5 -9 -58 -19 -118 -94 -525 -107 -1087 -36 -1564 46
-312 131 -638 212 -813 l36 -77 38 68 c46 86 152 251 223 346 l53 71 -29 45
c-47 74 -105 181 -137 252 l-30 68 62 -49 c34 -26 79 -61 101 -76 l38 -29 -35
55 c-44 69 -118 240 -151 350 -36 121 -55 221 -67 366 -12 139 -5 431 11 447
7 7 10 5 10 -3 0 -11 86 -193 158 -336 3 -5 -21 15 -53 45 -55 53 -57 54 -52
25 3 -16 9 -50 13 -75 9 -65 50 -190 90 -279 34 -72 162 -276 170 -269 2 2 -6
29 -17 59 -30 78 -49 188 -49 282 l0 81 51 -89 c57 -100 198 -292 253 -344
l36 -35 59 55 c32 30 59 58 60 62 0 5 -27 45 -61 89 -92 122 -164 240 -198
330 -17 44 -29 82 -27 84 1 2 31 -25 66 -60 l62 -63 88 83 c155 148 357 299
522 391 27 16 49 31 49 35 0 25 -456 257 -675 343 -207 82 -500 176 -732 234
-93 24 -93 24 -93 13z"/>
<path d="M6155 4493 c-59 -31 -86 -68 -119 -165 -15 -43 -15 -43 15 -73 l30
-30 21 25 c32 39 66 112 87 189 21 77 18 82 -34 54z"/>
<path d="M3981 4069 c-107 -21 -107 -87 0 -183 44 -39 57 -46 93 -46 22 1 51
6 62 13 61 34 134 121 134 158 0 54 -152 85 -289 58z"/>
<path d="M2871 3900 c-36 -82 -37 -90 -13 -90 25 0 142 -41 229 -80 l73 -33
20 24 c10 13 19 27 20 31 1 20 -262 218 -289 218 -5 0 -22 -32 -40 -70z"/>
<path d="M4092 3696 c-14 -32 -88 -91 -148 -118 -64 -29 -176 -32 -217 -5 -15
9 -27 15 -27 12 0 -3 20 -32 45 -66 25 -33 49 -80 55 -102 69 -270 109 -374
195 -502 112 -169 246 -249 370 -223 62 13 90 27 145 73 138 115 230 308 304
635 19 85 41 176 49 203 8 26 13 47 10 47 -3 0 -20 -13 -38 -29 -63 -55 -135
-75 -270 -76 -100 0 -131 4 -187 23 -58 20 -159 75 -249 135 -25 17 -26 17
-37 -7z"/>
<path d="M2826 3583 c19 -88 36 -134 47 -129 7 3 65 22 130 43 171 55 158 78
-59 103 -128 14 -125 15 -118 -17z"/>
</g>
</svg>
